<?xml version="1.0" encoding="utf-8"?>
<!-- Svg Vector Icons : http://www.sfont.cn -->
<!DOCTYPE svg PUBLIC "-//W3C//DTD SVG 1.1//EN" "http://www.w3.org/Graphics/SVG/1.1/DTD/svg11.dtd">
<svg version="1.1" xmlns="http://www.w3.org/2000/svg" xmlns:xlink="http://www.w3.org/1999/xlink" x="0px" y="0px" viewBox="0 0 1000 1000" enable-background="new 0 0 1000 1000" xml:space="preserve">
<metadata> Svg Vector Icons : http://www.sfont.cn </metadata>
<g fill="#9b9b9b"><g transform="translate(0.000000,491.000000) scale(0.100000,-0.100000)"><path d="M1219,3995.5l-155.5-454.9l-477.9-9.6l-476-9.6l372.4-286c205.4-157.4,378.1-287.9,380-291.7c3.8-1.9-53.7-199.6-128.6-437.6c-74.9-238-136.3-441.5-136.3-451.1c0-11.5,170.8,97.9,380,241.9c207.3,144,387.7,261,399.2,261s170.8-103.7,355.1-230.3c184.3-126.7,357-245.7,385.8-263l51.8-34.6l-26.9,84.5c-144,435.7-259.1,829.2-243.8,838.8c9.6,5.8,182.3,136.3,382,289.8l364.7,278.3l-479.8,9.6l-479.9,9.6l-149.7,449.1c-82.5,245.7-153.6,451.1-155.5,454.9C1376.4,4446.5,1303.5,4245,1219,3995.5z"/><path d="M3301.6,3496.4c-48-42.2-59.5-69.1-59.5-128.6c0-59.5,11.5-86.4,59.5-128.6l59.5-53.7h3197.7c3541.3,0,3284.1-9.6,3328.3,124.8c17.3,53.7,17.3,82.5,0,126.7c-51.9,120.9,174.6,113.3-3328.3,113.3H3361.1L3301.6,3496.4z"/><path d="M1219,667.2l-153.5-466.4l-474.1-9.6l-474.1-9.6l374.3-286c205.4-157.4,374.3-291.8,374.3-297.5s-63.3-213-142-456.8c-76.8-245.7-132.4-441.5-120.9-433.8c9.6,5.8,186.2,126.7,391.6,266.8c203.5,142,376.2,257.2,382,257.2c7.7,0,393.5-261,740.9-502.9c34.5-23,49.9-26.9,44.1-11.5c-76.8,215-274.5,890.6-263,900.2c7.7,5.8,176.6,136.3,376.2,287.9l360.8,276.4l-470.2,5.8l-470.3,3.8l-126.7,370.4c-69.1,201.5-142,414.6-161.2,470.3l-32.6,99.8L1219,667.2z"/><path d="M3293.9,162.4c-36.5-34.5-48-67.2-48-124.8c0-57.6,11.5-90.2,48-124.8c42.2-44.1,63.3-48,215-49.9c92.1,0,1545.1-1.9,3228.4-1.9h3057.6l49.9,49.9c72.9,71,71,190-1.9,253.4l-53.7,46.1H6564.6H3339.9L3293.9,162.4z"/><path d="M1220.9-2668.7l-151.6-460.7l-485.6-3.8L100-3139l364.7-278.3c201.5-153.6,374.3-287.9,383.9-299.4c11.5-15.4-28.8-170.8-117.1-451.1c-72.9-236.1-134.4-435.7-134.4-445.3c0-13.4,445.3,280.2,691,458.7l86.4,61.4l383.9-264.9c211.1-147.8,389.6-266.8,395.4-266.8c7.7-1.9-51.8,199.6-128.6,443.4c-78.7,245.7-142,449.1-142,451.1c0,1.9,174.7,136.3,385.8,297.5l385.8,293.7l-483.7,9.6l-485.6,9.6l-149.7,449.1c-82.5,245.7-153.6,451.1-157.4,454.9C1376.4-2211.9,1305.4-2417.3,1220.9-2668.7z"/><path d="M3351.5-3127.5c-130.5-53.7-153.6-241.8-38.4-316.7c42.2-26.9,376.2-30.7,3253.4-30.7c2163.2,0,3220.7,5.8,3245.7,19.2c53.8,30.7,97.9,128.6,84.5,190c-5.8,30.7-32.6,74.8-59.5,99.8l-49.9,46.1l-3197.7,3.8C4829.4-3114,3372.6-3119.8,3351.5-3127.5z"/></g></g>
</svg>