<?xml version="1.0" encoding="utf-8"?>
<!-- Svg Vector Icons : http://www.sfont.cn -->
<!DOCTYPE svg PUBLIC "-//W3C//DTD SVG 1.1//EN" "http://www.w3.org/Graphics/SVG/1.1/DTD/svg11.dtd">
<svg version="1.1" xmlns="http://www.w3.org/2000/svg" xmlns:xlink="http://www.w3.org/1999/xlink" x="0px" y="0px" viewBox="0 0 1000 1000" enable-background="new 0 0 1000 1000" xml:space="preserve">
<metadata> Svg Vector Icons : http://www.sfont.cn </metadata>
<g><path d="M290.7,583.5l-96.8,242l232.3-96.8L281,583.5H290.7z M968.2,70.5l-29-29c-29-29-87.1-29-116.1,0L765,99.5l145.2,145.2l58.1-58.1C997.3,157.6,997.3,99.5,968.2,70.5z M290.7,564.1l19.4-19.4L455.2,690l416.2-416.2L726.2,128.6l29-29L290.7,564.1L290.7,564.1z M803.7,902.9H87.4V186.6h503.3l77.4-87.1H48.7c-19.4,0-38.7,19.4-38.7,38.7v803.4c0,19.4,19.4,38.7,38.7,38.7h803.4c19.4,0,38.7-19.4,38.7-38.7V351.2l-87.1,87.1V902.9L803.7,902.9z"/></g>
</svg>