<?xml version="1.0" standalone="no"?><!DOCTYPE svg PUBLIC "-//W3C//DTD SVG 1.1//EN" "http://www.w3.org/Graphics/SVG/1.1/DTD/svg11.dtd"><svg t="1517904753600" class="icon" style="" viewBox="0 0 1024 1024" version="1.1" xmlns="http://www.w3.org/2000/svg" p-id="1680" xmlns:xlink="http://www.w3.org/1999/xlink" width="200" height="200"><defs><style type="text/css">@font-face { font-family: rbicon; src: url("chrome-extension://dipiagiiohfljcicegpgffpbnjmgjcnf/fonts/rbicon.woff2") format("woff2"); font-weight: 400; font-style: normal; }
</style></defs><path d="M737.28 825.36448c11.30496 0 20.48-9.15456 20.48-20.48l0-503.808c0-0.45056-0.22528-0.83968-0.26624-1.29024-0.12288-1.8432-0.47104-3.62496-1.08544-5.36576-0.24576-0.69632-0.43008-1.35168-0.73728-2.00704-0.9216-1.96608-2.10944-3.80928-3.66592-5.4272-0.12288-0.12288-0.18432-0.3072-0.32768-0.43008-0.02048-0.02048-0.04096-0.06144-0.06144-0.1024l-112.64-110.592c-1.69984-1.65888-3.6864-2.8672-5.77536-3.85024-0.63488-0.28672-1.29024-0.45056-1.96608-0.67584-1.7408-0.59392-3.52256-0.96256-5.36576-1.08544C625.4592 170.22976 625.09056 170.00448 624.64 170.00448L286.72 170.00448c-11.30496 0-20.48 9.15456-20.48 20.48l0 614.4c0 11.32544 9.17504 20.48 20.48 20.48L737.28 825.36448zM645.12 239.3088l42.06592 41.30816L645.12 280.61696 645.12 239.3088zM307.2 210.96448l296.96 0 0 90.112c0 11.32544 9.17504 20.48 20.48 20.48L716.8 321.55648l0 462.848L307.2 784.40448 307.2 210.96448z" p-id="1681" fill="#bfbfbf"></path></svg>