<?xml version="1.0" encoding="utf-8"?>
<!-- Svg Vector Icons : http://www.sfont.cn -->
<!DOCTYPE svg PUBLIC "-//W3C//DTD SVG 1.1//EN" "http://www.w3.org/Graphics/SVG/1.1/DTD/svg11.dtd">
<svg version="1.1" xmlns="http://www.w3.org/2000/svg" xmlns:xlink="http://www.w3.org/1999/xlink" x="0px" y="0px" viewBox="0 0 1000 1000" enable-background="new 0 0 1000 1000" xml:space="preserve">
<metadata> Svg Vector Icons : http://www.sfont.cn </metadata>
<g fill="#2589df"><path d="M286.9,172c0-20.3-15.5-36.8-35.8-36.8h-68.7c-20.3,0-36.8,16.4-36.8,36.8v120.9l141.3-107.4L286.9,172L286.9,172z"/><path d="M977.7,434.2L536.5,99.4c-1-1-1.9-1.9-3.9-2.9c1.9,1,1.9,1,2.9,1.9c-9.7-7.7-22.3-11.6-35.8-11.6c-12.6,0-25.2,3.9-34.8,11.6c-1,0-1.9,0-1.9,1L22.8,434.2c-14.5,10.6-16.4,30-6.8,43.5c10.6,14.5,31,17.4,44.5,6.8l425.7-324.1c0,0,0,0,1,0c3.9-2.9,7.7-4.8,12.6-4.8c4.8,0,9.7,1.9,13.5,4.8l0,0L939,484.5c14.5,10.6,33.9,7.7,44.5-6.8C994.2,464.2,991.3,444.9,977.7,434.2L977.7,434.2z"/><path d="M513.3,243.6L513.3,243.6c-3.9-2.9-8.7-3.9-13.5-3.9c-4.8,0-8.7,1-12.6,3.9c-1,0-1,0-1,0L153.4,497.1c-7.7,5.8-11.6,13.5-11.6,22.3v299.9c0,52.2,41.6,93.9,93.9,93.9c277.7,0,243.8,0,529.3,0c51.3,0,92.9-41.6,92.9-93.9V519.4c0-8.7-3.9-16.4-10.6-22.3L513.3,243.6z"/></g>
</svg>