<?xml version="1.0" encoding="utf-8"?>
<!-- Svg Vector Icons : http://www.sfont.cn -->
<!DOCTYPE svg PUBLIC "-//W3C//DTD SVG 1.1//EN" "http://www.w3.org/Graphics/SVG/1.1/DTD/svg11.dtd">
<svg version="1.1" xmlns="http://www.w3.org/2000/svg" xmlns:xlink="http://www.w3.org/1999/xlink" x="0px" y="0px" viewBox="0 0 1000 1000" enable-background="new 0 0 1000 1000" xml:space="preserve">
<metadata> Svg Vector Icons : http://www.sfont.cn </metadata>
<g fill="#2589df"><path d="M10,37.6L10,37.6L10,37.6z"/><path d="M290.8,230.8c12.1,0,24.5,2.2,37.2,6.5c12.7,4.4,25.8,10.9,39.3,19.6c6.7,4.7,13.6,9.9,20.6,15.6c7,5.7,13.9,12.1,20.6,19.1s13.4,14.4,20.1,22.2c6.7,7.7,13.2,16.1,19.6,25.2s12.9,18.6,19.6,28.7l70.5,110.7l69.4-111.7c29.5-48.3,61.4-83.9,95.6-106.7c12.8-8.7,25.5-15.3,38.3-19.6s25.5-6.5,38.3-6.5c16.8,0,33,4,48.8,12.1c15.8,8.1,29.7,19.8,41.8,35.2c16.8,20.8,28.2,45.3,34.2,73.5c6,30.2,5,61.7-3,94.6c-6,17.5-26.8,48-62.4,91.6c-16.8,20.8-36.6,43.8-59.4,69c-22.8,25.2-48,52.2-75.5,81c-55,57-110.4,111.4-166.1,163.1c-52.3-49-101-96.6-145.9-142.9c-29.5-30.2-56.2-58.5-80-85.1s-44.8-50.8-62.9-73c-40.9-51-64.7-87.9-71.5-110.7c-4-15.4-6.4-31-7.1-46.8c-0.7-15.8,0.3-31.4,3-46.8c2.7-13.4,6.7-26.3,12.1-38.7c5.4-12.4,12.1-23.7,20.1-33.7C229.8,245.9,258,230.8,290.8,230.8L290.8,230.8z M290.8,150.3c-26.2,0-51.5,5.7-76,17.1s-45.4,27-62.9,46.8s-32,42.9-43.8,69.4c-11.7,26.5-18.3,55-19.6,85.5c-1.4,30.5,2.3,62.2,11.1,95.1c7.4,26.2,27.5,61.4,60.4,105.7s69.9,88.2,111.2,131.9s82.2,85.4,122.8,125.3s74.7,72.6,102.2,98.1l41.3,37.2c4.7,0,48.3-40.3,130.9-120.8c173.1-168.4,275.4-286.5,307-354.3c2.7-6,4.7-11.4,6.1-16.1c7.4-34.2,10.1-67.1,8.1-98.6c-2-31.5-9.1-60.6-21.1-87.1c-12.1-26.5-27.3-49.6-45.8-69.4s-40.1-35.2-64.9-46.3s-50.6-16.6-77.5-16.6c-42.3,0-84.4,13.9-126.3,41.8c-41.9,27.8-80.7,71-116.2,129.3c-25.5-40.3-52.8-73.6-82-100.1s-57.2-45.5-84-56.9s-53.7-17.1-80.5-17.1L290.8,150.3z"/></g>
</svg>